<svg xmlns="http://www.w3.org/2000/svg" width="29.495" height="31.8" viewBox="0 0 29.495 31.8">
  <path id="Path_1849" data-name="Path 1849" d="M25.735,0H7.706A3.718,3.718,0,0,0,3.995,3.714v5.8H1.652A1.587,1.587,0,0,0-.043,11.213,1.587,1.587,0,0,0,1.652,12.9H4V19.61H1.652a1.587,1.587,0,0,0-1.695,1.7A1.587,1.587,0,0,0,1.652,23H4v5.085A3.718,3.718,0,0,0,7.709,31.8H25.738a3.718,3.718,0,0,0,3.71-3.714V3.714A3.718,3.718,0,0,0,25.735,0M7.384,23h3.625a1.7,1.7,0,1,0,.017-3.389H7.384V12.9h3.625a1.7,1.7,0,1,0,.017-3.389H7.384V5.142A1.755,1.755,0,0,1,9.137,3.389H24.306a1.755,1.755,0,0,1,1.753,1.753V26.655a1.755,1.755,0,0,1-1.754,1.753H9.137a1.755,1.755,0,0,1-1.753-1.753Z" transform="translate(0.047)" fill="#fff"/>
</svg>
