<svg xmlns="http://www.w3.org/2000/svg" width="28.339" height="24.061" viewBox="0 0 28.339 24.061">
  <path id="Path_1813" data-name="Path 1813" d="M24.275,9.1h-.607V3.641A3.652,3.652,0,0,0,20.027,0H3.641A3.652,3.652,0,0,0,0,3.641v7.282a3.652,3.652,0,0,0,3.641,3.641h.91v3.641a.6.6,0,0,0,.364.546.365.365,0,0,0,.243.061.6.6,0,0,0,.425-.182l4.066-4.066h1.578v2.427a3.043,3.043,0,0,0,3.034,3.034h4.673l4.1,2.913a.743.743,0,0,0,.364.121A.886.886,0,0,0,23.668,23,.573.573,0,0,0,24,22.454V20.027h.3a3.043,3.043,0,0,0,3.034-3.034V12.137A3.089,3.089,0,0,0,24.275,9.1M11.227,12.137v1.214H9.406a.6.6,0,0,0-.425.182L5.765,16.75V13.958a.609.609,0,0,0-.607-.607H3.641a2.435,2.435,0,0,1-2.427-2.427V3.641A2.435,2.435,0,0,1,3.641,1.214H20.027a2.435,2.435,0,0,1,2.427,2.427V9.1H14.261a3.043,3.043,0,0,0-3.034,3.034M26.1,16.992a1.826,1.826,0,0,1-1.821,1.821h-.91a.609.609,0,0,0-.607.607v1.851l-3.277-2.336a.583.583,0,0,0-.364-.121H14.261a1.826,1.826,0,0,1-1.821-1.821V12.137a1.826,1.826,0,0,1,1.821-1.821H24.275A1.826,1.826,0,0,1,26.1,12.137Z" transform="translate(0.5 0.5)" fill="#ffffff" stroke="#ffffff" stroke-width="1"/>
</svg>
