<svg xmlns="http://www.w3.org/2000/svg" width="146.632" height="35.576" viewBox="0 0 146.632 35.576">
  <g id="Logo" transform="translate(-47.5 -351.838)">
    <g id="Group_642" data-name="Group 642" transform="translate(47.5 367.892)">
      <path id="Path_1499" data-name="Path 1499" d="M611.28,534.619v8.029q0,.289-1.483.459a26.8,26.8,0,0,1-3.07.17,8.94,8.94,0,0,1-2.06-.144q-.472-.144-.472-.485V535.38q0-3.752-.761-3.752a.566.566,0,0,0-.367.157.7.7,0,0,0-.184.551v10.311q0,.289-1.482.459a26.922,26.922,0,0,1-3.083.17,8.836,8.836,0,0,1-2.06-.144q-.459-.144-.459-.485V535.38a9.125,9.125,0,0,0-.367-3.49.556.556,0,0,0-.472-.262q-.5,0-.5.708v10.311q0,.289-1.5.459a27.151,27.151,0,0,1-3.083.17,8.743,8.743,0,0,1-2.046-.144q-.46-.144-.459-.485V529.712q0-.551,1.509-1.1a9.216,9.216,0,0,1,3.188-.551q1.679,0,1.889.971l.236,1.154h.184a4.32,4.32,0,0,1,2.519-2.125,6.294,6.294,0,0,1,1.889-.236,3.5,3.5,0,0,1,3.358,2.362,3.869,3.869,0,0,1,1.705-1.574,5.929,5.929,0,0,1,3.018-.787q2.6,0,3.5,1.614A11.111,11.111,0,0,1,611.28,534.619Z" transform="translate(-587.377 -527.823)" fill="#fff"/>
      <path id="Path_1500" data-name="Path 1500" d="M724.828,543.513a5.715,5.715,0,0,1-3.752-1.128,3.85,3.85,0,0,1-.958-1.391,5.272,5.272,0,0,1-.407-2.152,3.892,3.892,0,0,1,.59-2.151,4.333,4.333,0,0,1,1.43-1.417,8.114,8.114,0,0,1,1.968-.813,14.813,14.813,0,0,1,3.752-.446h.866a1.638,1.638,0,0,0-.735-1.522,1.957,1.957,0,0,0-.958-.184,4.531,4.531,0,0,0-1.548.341,9.939,9.939,0,0,0-1.509.7,2.188,2.188,0,0,1-.813.354q-.473,0-1.286-1.246a4.252,4.252,0,0,1-.814-2.269q0-.341.971-.892a11.638,11.638,0,0,1,2.742-1.01,13.732,13.732,0,0,1,3.45-.459,13.322,13.322,0,0,1,2.9.275,8.69,8.69,0,0,1,1.994.669,4.052,4.052,0,0,1,1.312,1.05,7.245,7.245,0,0,1,.814,1.181,4.437,4.437,0,0,1,.407,1.365,13.127,13.127,0,0,1,.184,2.388v7.9q0,.289-1.4.459a22.985,22.985,0,0,1-2.781.17,12.191,12.191,0,0,1-1.784-.079.894.894,0,0,1-.485-.184.95.95,0,0,1-.131-.367l-.21-1.5h-.21Q727.767,543.513,724.828,543.513Zm3.516-4.356v-3.07a1.3,1.3,0,0,0-1.1.577,2.173,2.173,0,0,0-.42,1.312q0,1.732.787,1.732a.794.794,0,0,0,.538-.17A.5.5,0,0,0,728.344,539.158Z" transform="translate(-693.568 -527.823)" fill="#fff"/>
      <path id="Path_1501" data-name="Path 1501" d="M832.821,534.619v8.029q0,.289-1.482.459a26.8,26.8,0,0,1-3.07.17,8.942,8.942,0,0,1-2.06-.144q-.472-.144-.472-.485V535.38q0-3.752-.761-3.752a.567.567,0,0,0-.367.157.7.7,0,0,0-.184.551v10.311q0,.289-1.483.459a26.921,26.921,0,0,1-3.083.17,8.832,8.832,0,0,1-2.06-.144q-.459-.144-.459-.485V535.38a9.125,9.125,0,0,0-.367-3.49.556.556,0,0,0-.472-.262q-.5,0-.5.708v10.311q0,.289-1.5.459a27.145,27.145,0,0,1-3.083.17,8.743,8.743,0,0,1-2.046-.144q-.459-.144-.459-.485V529.712q0-.551,1.509-1.1a9.214,9.214,0,0,1,3.188-.551q1.679,0,1.889.971l.236,1.154h.184a4.321,4.321,0,0,1,2.519-2.125,6.3,6.3,0,0,1,1.889-.236,3.5,3.5,0,0,1,3.358,2.362,3.869,3.869,0,0,1,1.706-1.574,5.928,5.928,0,0,1,3.017-.787q2.6,0,3.5,1.614A11.111,11.111,0,0,1,832.821,534.619Z" transform="translate(-765.038 -527.823)" fill="#fff"/>
      <path id="Path_1502" data-name="Path 1502" d="M946.514,537.347q0,1.706,1.627,1.706a6.744,6.744,0,0,0,2.466-.643q1.522-.643,1.6-.643.5,0,1.312,1.5a5.433,5.433,0,0,1,.813,2.2q0,1.023-2.1,1.548a16.9,16.9,0,0,1-4.106.525,15.113,15.113,0,0,1-3.358-.315,8.278,8.278,0,0,1-2.2-.8,6.022,6.022,0,0,1-1.5-1.194,5.95,5.95,0,0,1-.958-1.351,6.7,6.7,0,0,1-.5-1.43,10.733,10.733,0,0,1-.262-2.388q0-4.775,2.493-6.586a7.52,7.52,0,0,1,2.755-1.286,15.459,15.459,0,0,1,3.595-.367q6.638,0,6.638,4.618,0,4.907-7.452,4.906Zm-.053-3.831v1.732a1.528,1.528,0,0,0,1.246-.6,2.271,2.271,0,0,0,.485-1.469q0-1.574-.813-1.574Q946.461,531.6,946.461,533.517Z" transform="translate(-869.819 -527.823)" fill="#fff"/>
      <path id="Path_1503" data-name="Path 1503" d="M1034.51,541.545v-1.522h-.21a2.116,2.116,0,0,1-.367.328,5.642,5.642,0,0,1-1.3.538,7.453,7.453,0,0,1-2.335.341,5.423,5.423,0,0,1-2.191-.393,3.77,3.77,0,0,1-1.391-.984,4.271,4.271,0,0,1-.787-1.587,15.713,15.713,0,0,1-.446-4.2,7.387,7.387,0,0,1,1.286-4.67,3.869,3.869,0,0,1,1.483-1.115,4.933,4.933,0,0,1,2.112-.459,5.891,5.891,0,0,1,1.863.249,3.085,3.085,0,0,1,1.1.59,2.752,2.752,0,0,1,.84,1.286l.026.236h.21l.236-1.024q.262-1.1,4.146-1.1,1.732,0,2.1.525a1.646,1.646,0,0,1,.262.59,4.772,4.772,0,0,1,.052.827v10.994a5.709,5.709,0,0,1-2.02,4.723,9.29,9.29,0,0,1-5.93,1.627q-4.146,0-5.641-.814-.656-.367-.656-.761a7.75,7.75,0,0,1,.512-2.125q.512-1.5.958-1.5a4.976,4.976,0,0,1,.735.184,13.338,13.338,0,0,0,3.24.525,3.094,3.094,0,0,0,1.679-.315A1.15,1.15,0,0,0,1034.51,541.545Zm-1.05-3.306a.6.6,0,0,0,.472-.21.7.7,0,0,0,.183-.472v-5.405q-.1-.551-.577-.551-1,0-1,3.28a9.621,9.621,0,0,0,.249,2.44Q1033.04,538.24,1033.46,538.24Z" transform="translate(-938.931 -527.823)" fill="#fff"/>
      <path id="Path_1504" data-name="Path 1504" d="M1119.966,544.518q-2.939,0-4.106-1.522t-1.168-5.3V530.56q0-.524,1.548-1.01a10.8,10.8,0,0,1,3.253-.486q2.283,0,2.283,1.181v6.665a18.855,18.855,0,0,0,.158,2.9q.157.906.787.905.84,0,.84-.708V530.56q0-.551,1.627-1.023a12.658,12.658,0,0,1,3.542-.472q1.915,0,1.916,1.023V543.6q0,.368-1.653.525t-3.254.157q-1.6,0-1.627-.42l-.263-1.706h-.21a2.9,2.9,0,0,1-.944,1.548,3.388,3.388,0,0,1-1.089.564A5.011,5.011,0,0,1,1119.966,544.518Z" transform="translate(-1010.508 -528.828)" fill="#fff"/>
      <path id="Path_1505" data-name="Path 1505" d="M1212.6,532.5v12.935q0,.289-1.509.459a27.458,27.458,0,0,1-3.1.171,8.755,8.755,0,0,1-2.046-.144q-.46-.144-.46-.486V532.976q0-.577,1.483-1.141a9.043,9.043,0,0,1,3.24-.564Q1212.594,531.27,1212.6,532.5Z" transform="translate(-1083.047 -530.614)" fill="#fff"/>
      <path id="Path_1506" data-name="Path 1506" d="M1255.149,543.513a5.715,5.715,0,0,1-3.752-1.128,3.843,3.843,0,0,1-.958-1.391,5.271,5.271,0,0,1-.407-2.152,3.891,3.891,0,0,1,.59-2.151,4.34,4.34,0,0,1,1.43-1.417,8.117,8.117,0,0,1,1.968-.813,14.814,14.814,0,0,1,3.752-.446h.866a1.638,1.638,0,0,0-.735-1.522,1.956,1.956,0,0,0-.957-.184,4.53,4.53,0,0,0-1.548.341,9.937,9.937,0,0,0-1.509.7,2.186,2.186,0,0,1-.813.354q-.472,0-1.286-1.246a4.25,4.25,0,0,1-.813-2.269q0-.341.971-.892a11.654,11.654,0,0,1,2.742-1.01,13.738,13.738,0,0,1,3.451-.459,13.329,13.329,0,0,1,2.9.275,8.69,8.69,0,0,1,1.994.669,4.054,4.054,0,0,1,1.312,1.05,7.269,7.269,0,0,1,.813,1.181,4.44,4.44,0,0,1,.407,1.365,13.154,13.154,0,0,1,.184,2.388v7.9q0,.289-1.4.459a22.994,22.994,0,0,1-2.781.17,12.187,12.187,0,0,1-1.784-.079.9.9,0,0,1-.485-.184.955.955,0,0,1-.132-.367l-.209-1.5h-.21Q1258.088,543.513,1255.149,543.513Zm3.516-4.356v-3.07a1.3,1.3,0,0,0-1.1.577,2.175,2.175,0,0,0-.42,1.312q0,1.732.787,1.732a.793.793,0,0,0,.538-.17A.5.5,0,0,0,1258.665,539.158Z" transform="translate(-1119.118 -527.823)" fill="#fff"/>
    </g>
    <g id="Group_643" data-name="Group 643" transform="translate(161.812 351.838)">
      <path id="Path_1507" data-name="Path 1507" d="M1228.177,456.388a2.308,2.308,0,0,1,.369-2.329,14.277,14.277,0,0,1,4.659-3.657,6.034,6.034,0,0,1,3.722-.735,2.863,2.863,0,0,1,2.416,2.608c-.019,1.258-1.1,2.32-1.1,3.578,0,.908.569,1.726.662,2.629a3.173,3.173,0,0,1-2.052,3.081,5.336,5.336,0,0,1-3.875-.142A9.033,9.033,0,0,1,1228.177,456.388Z" transform="translate(-1215.602 -449.595)" fill="#fff"/>
      <path id="Path_1508" data-name="Path 1508" d="M1173.955,456.388a2.309,2.309,0,0,0-.37-2.329,14.277,14.277,0,0,0-4.659-3.657,6.033,6.033,0,0,0-3.722-.735,2.862,2.862,0,0,0-2.416,2.608c.018,1.258,1.1,2.32,1.1,3.578,0,.908-.569,1.726-.662,2.629a3.172,3.172,0,0,0,2.051,3.081,5.336,5.336,0,0,0,3.875-.142A9.037,9.037,0,0,0,1173.955,456.388Z" transform="translate(-1162.789 -449.595)" fill="#fff"/>
    </g>
  </g>
</svg>
