<svg xmlns="http://www.w3.org/2000/svg" width="26.572" height="22" viewBox="0 0 26.572 22">
  <g id="Group_894" data-name="Group 894" transform="translate(-21.9 -26.38)">
    <g id="Group_784" data-name="Group 784" transform="translate(21.9 26.38)">
      <g id="Group_783" data-name="Group 783">
        <path id="Path_1608" data-name="Path 1608" d="M23.446,7.292,18.407,4.565a.879.879,0,0,1,0-1.514L23.864.1a.732.732,0,0,1,.363-.1.816.816,0,0,1,.782.846V12.692a.784.784,0,1,1-1.563,0ZM15.5,20.308a2.291,2.291,0,0,1-4.423,0H4.556A2.367,2.367,0,0,1,2.345,22a2.546,2.546,0,0,1,0-5.077,2.367,2.367,0,0,1,2.211,1.692h6.519a2.291,2.291,0,0,1,4.423,0h6.519a2.367,2.367,0,0,1,2.211-1.692,2.546,2.546,0,0,1,0,5.077,2.367,2.367,0,0,1-2.211-1.692Zm-.043-4.451a.74.74,0,0,1-1.105-.005.9.9,0,0,1,0-1.2A6.378,6.378,0,0,1,15.4,13.75a.747.747,0,0,1,1.079.259.889.889,0,0,1-.239,1.169A4.8,4.8,0,0,0,15.455,15.857Zm3-1.462a.806.806,0,0,1-.829-.792.826.826,0,0,1,.732-.9c.129-.008.258-.013.388-.013a5.83,5.83,0,0,1,.953.077.839.839,0,0,1,.655.964.793.793,0,0,1-.89.709,4.409,4.409,0,0,0-.717-.058Q18.605,14.385,18.46,14.395Zm3.153,1.04a.894.894,0,0,1-.143-1.186.742.742,0,0,1,1.1-.155,6.515,6.515,0,0,1,.968,1,.9.9,0,0,1-.093,1.192.741.741,0,0,1-1.1-.1A4.933,4.933,0,0,0,21.612,15.434Zm-17.1.423a.74.74,0,0,1-1.105-.005.9.9,0,0,1,0-1.2,6.378,6.378,0,0,1,1.046-.905.747.747,0,0,1,1.079.259A.889.889,0,0,1,5.3,15.177,4.8,4.8,0,0,0,4.513,15.857Zm3-1.462A.806.806,0,0,1,6.69,13.6a.826.826,0,0,1,.732-.9c.129-.008.258-.013.388-.013a5.83,5.83,0,0,1,.953.077.839.839,0,0,1,.655.964.793.793,0,0,1-.89.709,4.409,4.409,0,0,0-.717-.058Q7.664,14.385,7.518,14.395Zm3.153,1.04a.894.894,0,0,1-.143-1.186.742.742,0,0,1,1.1-.155,6.514,6.514,0,0,1,.968,1,.9.9,0,0,1-.093,1.192.741.741,0,0,1-1.1-.1A4.933,4.933,0,0,0,10.671,15.434Z" fill="#fff"/>
      </g>
    </g>
  </g>
</svg>
