<svg xmlns="http://www.w3.org/2000/svg" width="24.04" height="32.2" viewBox="0 0 24.04 32.2">
  <g id="Group_893" data-name="Group 893" transform="translate(-6.017 -2.634)">
    <path id="Path_1601" data-name="Path 1601" d="M29.957,17.989a11.92,11.92,0,0,1-23.84,0v0a1.206,1.206,0,1,1,2.412,0,9.508,9.508,0,0,0,19.015,0,1.206,1.206,0,0,1,2.412,0Zm-19.015,0V9.829a7.1,7.1,0,0,1,14.191,0h0v8.159a7.1,7.1,0,0,1-14.191,0Zm2.589-9.365h2.224a1.206,1.206,0,1,1,0,2.412h-2.4V12.7h2.4a1.206,1.206,0,0,1,0,2.412h-2.4v1.667h2.4a1.206,1.206,0,1,1,0,2.412H13.531a4.658,4.658,0,0,0,9.012,0H20.319a1.206,1.206,0,1,1,0-2.412h2.4V15.116h-2.4a1.206,1.206,0,1,1,0-2.412h2.4V11.036h-2.4a1.206,1.206,0,1,1,0-2.412h2.224a4.658,4.658,0,0,0-9.012,0Zm10.4,23.7H12.147a1.206,1.206,0,0,0,0,2.412H23.926a1.206,1.206,0,1,0,0-2.412Z" transform="translate(0 0)" fill="#eb1b63" stroke="#fff" stroke-width="0.2"/>
  </g>
</svg>
