<svg xmlns="http://www.w3.org/2000/svg" width="206.101" height="50.004" viewBox="0 0 206.101 50.004">
  <g id="Logo" transform="translate(-47.5 -351.838)">
    <g id="Group_642" data-name="Group 642" transform="translate(47.5 374.403)">
      <path id="Path_1499" data-name="Path 1499" d="M620.975,537.375V548.66q0,.406-2.084.646a37.654,37.654,0,0,1-4.315.24,12.566,12.566,0,0,1-2.9-.2q-.664-.2-.664-.682V538.444q0-5.273-1.07-5.274a.8.8,0,0,0-.516.221.978.978,0,0,0-.258.775V548.66q0,.406-2.084.646a37.83,37.83,0,0,1-4.333.24,12.419,12.419,0,0,1-2.9-.2q-.645-.2-.645-.682V538.444q0-4.094-.516-4.9a.781.781,0,0,0-.664-.369q-.7,0-.7,1V548.66q0,.406-2.1.646a38.152,38.152,0,0,1-4.334.24,12.288,12.288,0,0,1-2.876-.2q-.646-.2-.646-.682V530.478q0-.775,2.12-1.549a12.955,12.955,0,0,1,4.481-.774q2.36,0,2.655,1.365l.332,1.623h.258a6.072,6.072,0,0,1,3.54-2.987,8.849,8.849,0,0,1,2.655-.332,4.921,4.921,0,0,1,4.721,3.319,5.437,5.437,0,0,1,2.4-2.213,8.334,8.334,0,0,1,4.241-1.107q3.651,0,4.923,2.268T620.975,537.375Z" transform="translate(-587.377 -527.823)" fill="#fccef3"/>
      <path id="Path_1500" data-name="Path 1500" d="M726.9,549.877a8.035,8.035,0,0,1-5.274-1.586,5.415,5.415,0,0,1-1.346-1.955,7.412,7.412,0,0,1-.571-3.024,5.47,5.47,0,0,1,.83-3.024,6.089,6.089,0,0,1,2.01-1.992,11.408,11.408,0,0,1,2.766-1.143,20.816,20.816,0,0,1,5.274-.627h1.217a2.3,2.3,0,0,0-1.033-2.139,2.749,2.749,0,0,0-1.346-.258,6.37,6.37,0,0,0-2.176.48,13.961,13.961,0,0,0-2.12.977,3.076,3.076,0,0,1-1.143.5q-.664,0-1.807-1.752a5.977,5.977,0,0,1-1.144-3.19q0-.479,1.365-1.254a16.356,16.356,0,0,1,3.854-1.42,19.3,19.3,0,0,1,4.85-.646,18.722,18.722,0,0,1,4.075.387,12.206,12.206,0,0,1,2.8.941,5.7,5.7,0,0,1,1.844,1.475,10.174,10.174,0,0,1,1.144,1.66,6.239,6.239,0,0,1,.572,1.918,18.461,18.461,0,0,1,.258,3.356v11.1q0,.406-1.974.646a32.294,32.294,0,0,1-3.909.24,17.141,17.141,0,0,1-2.508-.111,1.259,1.259,0,0,1-.682-.258,1.335,1.335,0,0,1-.184-.516l-.3-2.1h-.295Q731.034,549.877,726.9,549.877Zm4.942-6.122V539.44a1.829,1.829,0,0,0-1.549.812,3.054,3.054,0,0,0-.59,1.844q0,2.434,1.106,2.434a1.116,1.116,0,0,0,.756-.24A.7.7,0,0,0,731.845,543.755Z" transform="translate(-682.965 -527.823)" fill="#fccef3"/>
      <path id="Path_1501" data-name="Path 1501" d="M842.516,537.375V548.66q0,.406-2.084.646a37.659,37.659,0,0,1-4.315.24,12.568,12.568,0,0,1-2.9-.2q-.664-.2-.664-.682V538.444q0-5.273-1.069-5.274a.8.8,0,0,0-.516.221.978.978,0,0,0-.258.775V548.66q0,.406-2.084.646a37.826,37.826,0,0,1-4.333.24,12.415,12.415,0,0,1-2.9-.2q-.646-.2-.645-.682V538.444q0-4.094-.516-4.9a.782.782,0,0,0-.664-.369q-.7,0-.7,1V548.66q0,.406-2.1.646a38.143,38.143,0,0,1-4.334.24,12.289,12.289,0,0,1-2.876-.2q-.646-.2-.646-.682V530.478q0-.775,2.121-1.549a12.953,12.953,0,0,1,4.481-.774q2.359,0,2.656,1.365l.332,1.623h.258a6.073,6.073,0,0,1,3.54-2.987,8.85,8.85,0,0,1,2.656-.332,4.921,4.921,0,0,1,4.72,3.319,5.437,5.437,0,0,1,2.4-2.213,8.331,8.331,0,0,1,4.241-1.107q3.651,0,4.923,2.268T842.516,537.375Z" transform="translate(-747.242 -527.823)" fill="#fccef3"/>
      <path id="Path_1502" data-name="Path 1502" d="M949.419,541.21q0,2.4,2.286,2.4a9.479,9.479,0,0,0,3.467-.9q2.139-.9,2.25-.9.7,0,1.844,2.1a7.638,7.638,0,0,1,1.143,3.1q0,1.438-2.951,2.176a23.755,23.755,0,0,1-5.772.738,21.245,21.245,0,0,1-4.72-.442,11.634,11.634,0,0,1-3.1-1.125,8.464,8.464,0,0,1-2.1-1.678,8.366,8.366,0,0,1-1.346-1.9,9.409,9.409,0,0,1-.7-2.01,15.087,15.087,0,0,1-.369-3.356q0-6.712,3.5-9.257a10.57,10.57,0,0,1,3.872-1.807,21.733,21.733,0,0,1,5.052-.516q9.33,0,9.331,6.491,0,6.9-10.474,6.9Zm-.074-5.384v2.434a2.148,2.148,0,0,0,1.752-.848,3.192,3.192,0,0,0,.682-2.065q0-2.213-1.143-2.213Q949.345,533.134,949.345,535.826Z" transform="translate(-841.62 -527.823)" fill="#fccef3"/>
      <path id="Path_1503" data-name="Path 1503" d="M1038.171,547.111v-2.139h-.295a2.99,2.99,0,0,1-.516.461,7.936,7.936,0,0,1-1.826.756,10.475,10.475,0,0,1-3.282.479,7.622,7.622,0,0,1-3.079-.553,5.3,5.3,0,0,1-1.955-1.383,6,6,0,0,1-1.106-2.231,22.082,22.082,0,0,1-.627-5.9q0-4.278,1.807-6.565a5.439,5.439,0,0,1,2.084-1.567,6.936,6.936,0,0,1,2.968-.646,8.281,8.281,0,0,1,2.618.35,4.33,4.33,0,0,1,1.549.83,3.87,3.87,0,0,1,1.18,1.807l.037.332h.295l.332-1.439q.369-1.549,5.827-1.548,2.435,0,2.951.737a2.32,2.32,0,0,1,.369.83,6.7,6.7,0,0,1,.074,1.162v15.453a8.023,8.023,0,0,1-2.839,6.638q-2.841,2.286-8.335,2.287-5.828,0-7.929-1.144-.923-.516-.922-1.069a10.891,10.891,0,0,1,.719-2.987q.72-2.1,1.346-2.1a6.992,6.992,0,0,1,1.033.258,18.753,18.753,0,0,0,4.555.738,4.347,4.347,0,0,0,2.36-.442A1.616,1.616,0,0,0,1038.171,547.111Zm-1.475-4.647a.842.842,0,0,0,.664-.3.984.984,0,0,0,.257-.664v-7.6q-.147-.775-.811-.774-1.4,0-1.4,4.61a13.529,13.529,0,0,0,.35,3.43Q1036.105,542.465,1036.7,542.464Z" transform="translate(-903.828 -527.823)" fill="#fccef3"/>
      <path id="Path_1504" data-name="Path 1504" d="M1122.1,550.786q-4.131,0-5.772-2.139t-1.641-7.449V531.166q0-.737,2.176-1.419a15.186,15.186,0,0,1,4.573-.682q3.209,0,3.209,1.659v9.368a26.491,26.491,0,0,0,.222,4.075q.221,1.273,1.106,1.272,1.18,0,1.18-1V531.166q0-.774,2.286-1.438a17.791,17.791,0,0,1,4.979-.664q2.691,0,2.692,1.438V549.5q0,.517-2.323.738t-4.573.221q-2.25,0-2.287-.59l-.369-2.4h-.3a4.079,4.079,0,0,1-1.328,2.176,4.761,4.761,0,0,1-1.531.793A7.042,7.042,0,0,1,1122.1,550.786Z" transform="translate(-968.254 -528.732)" fill="#fccef3"/>
      <path id="Path_1505" data-name="Path 1505" d="M1215.479,533v18.181q0,.406-2.121.646a38.6,38.6,0,0,1-4.352.24,12.3,12.3,0,0,1-2.876-.2q-.646-.2-.646-.683V533.667q0-.811,2.084-1.6a12.711,12.711,0,0,1,4.555-.793Q1215.478,531.27,1215.479,533Z" transform="translate(-1033.389 -530.348)" fill="#fccef3"/>
      <path id="Path_1506" data-name="Path 1506" d="M1257.224,549.877a8.034,8.034,0,0,1-5.273-1.586,5.406,5.406,0,0,1-1.346-1.955,7.41,7.41,0,0,1-.572-3.024,5.47,5.47,0,0,1,.829-3.024,6.1,6.1,0,0,1,2.01-1.992,11.412,11.412,0,0,1,2.766-1.143,20.818,20.818,0,0,1,5.274-.627h1.217a2.3,2.3,0,0,0-1.033-2.139,2.748,2.748,0,0,0-1.346-.258,6.37,6.37,0,0,0-2.176.48,13.975,13.975,0,0,0-2.121.977,3.07,3.07,0,0,1-1.143.5q-.664,0-1.807-1.752a5.975,5.975,0,0,1-1.143-3.19q0-.479,1.364-1.254a16.375,16.375,0,0,1,3.854-1.42,19.314,19.314,0,0,1,4.85-.646,18.732,18.732,0,0,1,4.075.387,12.209,12.209,0,0,1,2.8.941,5.7,5.7,0,0,1,1.844,1.475,10.2,10.2,0,0,1,1.144,1.66,6.245,6.245,0,0,1,.572,1.918,18.5,18.5,0,0,1,.258,3.356v11.1q0,.406-1.973.646a32.3,32.3,0,0,1-3.909.24,17.135,17.135,0,0,1-2.508-.111,1.259,1.259,0,0,1-.682-.258,1.337,1.337,0,0,1-.185-.516l-.294-2.1h-.3Q1261.354,549.877,1257.224,549.877Zm4.942-6.122V539.44a1.83,1.83,0,0,0-1.549.812,3.057,3.057,0,0,0-.59,1.844q0,2.434,1.106,2.434a1.115,1.115,0,0,0,.756-.24A.7.7,0,0,0,1262.166,543.755Z" transform="translate(-1066.023 -527.823)" fill="#fccef3"/>
    </g>
    <g id="Group_643" data-name="Group 643" transform="translate(208.174 351.838)">
      <path id="Path_1507" data-name="Path 1507" d="M1228.243,459.143a3.245,3.245,0,0,1,.519-3.274,20.071,20.071,0,0,1,6.548-5.14,8.481,8.481,0,0,1,5.232-1.033,4.024,4.024,0,0,1,3.4,3.666c-.026,1.768-1.546,3.261-1.543,5.029,0,1.276.8,2.426.931,3.695a4.46,4.46,0,0,1-2.884,4.331,7.5,7.5,0,0,1-5.446-.2A12.7,12.7,0,0,1,1228.243,459.143Z" transform="translate(-1210.568 -449.595)" fill="#ad9be6"/>
      <path id="Path_1508" data-name="Path 1508" d="M1178.484,459.143a3.244,3.244,0,0,0-.52-3.274,20.071,20.071,0,0,0-6.548-5.14,8.48,8.48,0,0,0-5.231-1.033,4.024,4.024,0,0,0-3.4,3.666c.026,1.768,1.546,3.261,1.544,5.029,0,1.276-.8,2.426-.931,3.695a4.459,4.459,0,0,0,2.883,4.331,7.5,7.5,0,0,0,5.446-.2A12.7,12.7,0,0,0,1178.484,459.143Z" transform="translate(-1162.789 -449.595)" fill="#ad9be6"/>
    </g>
  </g>
</svg>
