<svg xmlns="http://www.w3.org/2000/svg" width="261.498" height="63.444" viewBox="0 0 261.498 63.444">
  <g id="Logo" transform="translate(-47.5 -351.838)">
    <g id="Group_642" data-name="Group 642" transform="translate(47.5 380.468)">
      <path id="Path_1499" data-name="Path 1499" d="M630.005,539.942V554.26q0,.516-2.644.819a47.769,47.769,0,0,1-5.474.3,15.944,15.944,0,0,1-3.673-.257q-.842-.256-.842-.866V541.3q0-6.691-1.357-6.691a1.011,1.011,0,0,0-.655.281,1.241,1.241,0,0,0-.328.983V554.26q0,.516-2.644.819a47.991,47.991,0,0,1-5.5.3,15.757,15.757,0,0,1-3.673-.257q-.819-.256-.819-.866V541.3q0-5.194-.655-6.223a.992.992,0,0,0-.843-.468q-.889,0-.889,1.263V554.26q0,.516-2.667.819a48.4,48.4,0,0,1-5.5.3,15.59,15.59,0,0,1-3.649-.257q-.82-.256-.819-.866V531.192q0-.983,2.69-1.965a16.434,16.434,0,0,1,5.685-.983q2.994,0,3.369,1.731l.422,2.059h.327a7.7,7.7,0,0,1,4.492-3.79,11.221,11.221,0,0,1,3.369-.421q4.117,0,5.989,4.211a6.9,6.9,0,0,1,3.041-2.807,10.574,10.574,0,0,1,5.381-1.4q4.632,0,6.247,2.878T630.005,539.942Z" transform="translate(-587.377 -527.823)" fill="#fff"/>
      <path id="Path_1500" data-name="Path 1500" d="M728.837,555.8a10.194,10.194,0,0,1-6.691-2.012,6.868,6.868,0,0,1-1.708-2.48,9.4,9.4,0,0,1-.725-3.837,6.941,6.941,0,0,1,1.053-3.837,7.725,7.725,0,0,1,2.55-2.527,14.47,14.47,0,0,1,3.509-1.45,26.416,26.416,0,0,1,6.691-.8h1.544a2.921,2.921,0,0,0-1.31-2.714,3.489,3.489,0,0,0-1.708-.328,8.082,8.082,0,0,0-2.76.609,17.715,17.715,0,0,0-2.69,1.24,3.9,3.9,0,0,1-1.45.632q-.843,0-2.293-2.223a7.583,7.583,0,0,1-1.451-4.047q0-.607,1.732-1.591a20.755,20.755,0,0,1,4.89-1.8,24.488,24.488,0,0,1,6.153-.819,23.751,23.751,0,0,1,5.17.491,15.5,15.5,0,0,1,3.557,1.193,7.227,7.227,0,0,1,2.339,1.872,12.918,12.918,0,0,1,1.451,2.106,7.91,7.91,0,0,1,.725,2.433,23.418,23.418,0,0,1,.328,4.258V554.26q0,.516-2.5.819a40.968,40.968,0,0,1-4.96.3,21.751,21.751,0,0,1-3.181-.14,1.6,1.6,0,0,1-.866-.328,1.692,1.692,0,0,1-.234-.655l-.375-2.667h-.374Q734.077,555.8,728.837,555.8Zm6.27-7.768v-5.475a2.321,2.321,0,0,0-1.965,1.03,3.876,3.876,0,0,0-.748,2.34q0,3.089,1.4,3.088a1.415,1.415,0,0,0,.959-.3A.888.888,0,0,0,735.107,548.037Z" transform="translate(-673.088 -527.823)" fill="#fff"/>
      <path id="Path_1501" data-name="Path 1501" d="M851.546,539.942V554.26q0,.516-2.644.819a47.776,47.776,0,0,1-5.475.3,15.946,15.946,0,0,1-3.673-.257q-.842-.256-.842-.866V541.3q0-6.691-1.357-6.691a1.011,1.011,0,0,0-.655.281,1.241,1.241,0,0,0-.327.983V554.26q0,.516-2.644.819a47.987,47.987,0,0,1-5.5.3,15.752,15.752,0,0,1-3.673-.257q-.819-.256-.819-.866V541.3q0-5.194-.655-6.223a.992.992,0,0,0-.843-.468q-.889,0-.889,1.263V554.26q0,.516-2.667.819a48.388,48.388,0,0,1-5.5.3,15.591,15.591,0,0,1-3.649-.257q-.819-.256-.819-.866V531.192q0-.983,2.691-1.965a16.432,16.432,0,0,1,5.685-.983q2.994,0,3.369,1.731l.421,2.059h.327a7.707,7.707,0,0,1,4.492-3.79,11.223,11.223,0,0,1,3.369-.421q4.117,0,5.989,4.211a6.9,6.9,0,0,1,3.042-2.807,10.571,10.571,0,0,1,5.381-1.4q4.632,0,6.247,2.878T851.546,539.942Z" transform="translate(-730.665 -527.823)" fill="#fff"/>
      <path id="Path_1502" data-name="Path 1502" d="M952.125,544.808q0,3.042,2.9,3.042a12.027,12.027,0,0,0,4.4-1.146q2.714-1.147,2.854-1.147.889,0,2.34,2.667a9.689,9.689,0,0,1,1.45,3.931q0,1.824-3.743,2.761a30.139,30.139,0,0,1-7.323.936,26.953,26.953,0,0,1-5.989-.561,14.765,14.765,0,0,1-3.93-1.428,10.741,10.741,0,0,1-2.667-2.129,10.622,10.622,0,0,1-1.708-2.409,11.944,11.944,0,0,1-.889-2.55,19.143,19.143,0,0,1-.468-4.258q0-8.516,4.446-11.745a13.409,13.409,0,0,1,4.913-2.293,27.567,27.567,0,0,1,6.41-.655q11.838,0,11.839,8.235,0,8.75-13.289,8.75Zm-.094-6.831v3.088a2.725,2.725,0,0,0,2.222-1.076,4.049,4.049,0,0,0,.866-2.62q0-2.808-1.45-2.808Q952.031,534.561,952.031,537.977Z" transform="translate(-815.351 -527.823)" fill="#fff"/>
      <path id="Path_1503" data-name="Path 1503" d="M1041.581,552.3v-2.714h-.374a3.79,3.79,0,0,1-.655.585,10.06,10.06,0,0,1-2.317.96,13.289,13.289,0,0,1-4.164.608,9.669,9.669,0,0,1-3.907-.7,6.722,6.722,0,0,1-2.48-1.755,7.62,7.62,0,0,1-1.4-2.831,28.038,28.038,0,0,1-.8-7.487q0-5.428,2.293-8.329a6.9,6.9,0,0,1,2.644-1.989,8.8,8.8,0,0,1,3.766-.819,10.508,10.508,0,0,1,3.322.445,5.494,5.494,0,0,1,1.965,1.053,4.912,4.912,0,0,1,1.5,2.293l.047.421h.374l.421-1.825q.467-1.965,7.393-1.965,3.088,0,3.743.935a2.937,2.937,0,0,1,.468,1.053,8.5,8.5,0,0,1,.094,1.474v19.606q0,5.522-3.6,8.423t-10.575,2.9q-7.394,0-10.061-1.451-1.17-.656-1.17-1.357a13.821,13.821,0,0,1,.912-3.79q.913-2.668,1.708-2.668a8.835,8.835,0,0,1,1.311.328,23.8,23.8,0,0,0,5.779.936,5.516,5.516,0,0,0,2.994-.561A2.05,2.05,0,0,0,1041.581,552.3Zm-1.872-5.9a1.068,1.068,0,0,0,.843-.374,1.248,1.248,0,0,0,.327-.842v-9.639q-.187-.983-1.029-.983-1.778,0-1.778,5.849a17.172,17.172,0,0,0,.444,4.351Q1038.96,546.4,1039.709,546.4Z" transform="translate(-871.129 -527.823)" fill="#fff"/>
      <path id="Path_1504" data-name="Path 1504" d="M1124.1,556.624q-5.241,0-7.323-2.714t-2.083-9.452V531.731q0-.935,2.761-1.8a19.274,19.274,0,0,1,5.8-.866q4.072,0,4.071,2.105v11.886a33.607,33.607,0,0,0,.281,5.17q.28,1.615,1.4,1.614,1.5,0,1.5-1.263V531.731q0-.982,2.9-1.824a22.567,22.567,0,0,1,6.317-.843q3.414,0,3.416,1.825v24.1q0,.656-2.948.936t-5.8.281q-2.855,0-2.9-.749l-.468-3.042h-.374a5.177,5.177,0,0,1-1.684,2.761,6.042,6.042,0,0,1-1.942,1.006A8.934,8.934,0,0,1,1124.1,556.624Z" transform="translate(-928.894 -528.643)" fill="#fff"/>
      <path id="Path_1505" data-name="Path 1505" d="M1218.166,533.469v23.068q0,.516-2.691.819a49.015,49.015,0,0,1-5.521.3,15.606,15.606,0,0,1-3.649-.257q-.82-.257-.82-.866V534.311q0-1.028,2.644-2.035a16.126,16.126,0,0,1,5.779-1.006Q1218.164,531.27,1218.166,533.469Z" transform="translate(-987.134 -530.1)" fill="#fff"/>
      <path id="Path_1506" data-name="Path 1506" d="M1259.157,555.8a10.191,10.191,0,0,1-6.691-2.012,6.859,6.859,0,0,1-1.708-2.48,9.407,9.407,0,0,1-.725-3.837,6.941,6.941,0,0,1,1.053-3.837,7.74,7.74,0,0,1,2.551-2.527,14.466,14.466,0,0,1,3.509-1.45,26.417,26.417,0,0,1,6.692-.8h1.544a2.921,2.921,0,0,0-1.31-2.714,3.49,3.49,0,0,0-1.708-.328,8.081,8.081,0,0,0-2.761.609,17.722,17.722,0,0,0-2.691,1.24,3.894,3.894,0,0,1-1.45.632q-.842,0-2.293-2.223a7.581,7.581,0,0,1-1.45-4.047q0-.607,1.731-1.591a20.767,20.767,0,0,1,4.889-1.8,24.5,24.5,0,0,1,6.154-.819,23.762,23.762,0,0,1,5.17.491,15.5,15.5,0,0,1,3.556,1.193,7.232,7.232,0,0,1,2.34,1.872,12.943,12.943,0,0,1,1.451,2.106,7.92,7.92,0,0,1,.725,2.433,23.453,23.453,0,0,1,.328,4.258V554.26q0,.516-2.5.819a40.985,40.985,0,0,1-4.96.3,21.748,21.748,0,0,1-3.182-.14,1.6,1.6,0,0,1-.866-.328,1.693,1.693,0,0,1-.234-.655l-.374-2.667h-.375Q1264.4,555.8,1259.157,555.8Zm6.271-7.768v-5.475a2.321,2.321,0,0,0-1.965,1.03,3.878,3.878,0,0,0-.748,2.34q0,3.089,1.4,3.088a1.415,1.415,0,0,0,.959-.3A.887.887,0,0,0,1265.427,548.037Z" transform="translate(-1016.564 -527.823)" fill="#fff"/>
    </g>
    <g id="Group_643" data-name="Group 643" transform="translate(251.36 351.838)">
      <path id="Path_1507" data-name="Path 1507" d="M1228.3,461.709a4.117,4.117,0,0,1,.658-4.154,25.465,25.465,0,0,1,8.308-6.522,10.76,10.76,0,0,1,6.638-1.31c2.253.436,4.341,2.356,4.308,4.652-.034,2.243-1.961,4.137-1.958,6.381,0,1.619,1.015,3.078,1.181,4.688a5.659,5.659,0,0,1-3.659,5.495,9.515,9.515,0,0,1-6.91-.254A16.111,16.111,0,0,1,1228.3,461.709Z" transform="translate(-1205.879 -449.595)" fill="#fff"/>
      <path id="Path_1508" data-name="Path 1508" d="M1182.7,461.709a4.117,4.117,0,0,0-.659-4.154,25.465,25.465,0,0,0-8.308-6.522,10.758,10.758,0,0,0-6.637-1.31c-2.254.436-4.341,2.356-4.308,4.652.033,2.243,1.961,4.137,1.958,6.381,0,1.619-1.016,3.078-1.182,4.688a5.658,5.658,0,0,0,3.658,5.495,9.516,9.516,0,0,0,6.91-.254A16.116,16.116,0,0,0,1182.7,461.709Z" transform="translate(-1162.789 -449.595)" fill="#fff"/>
    </g>
  </g>
</svg>
