<svg xmlns="http://www.w3.org/2000/svg" width="22.248" height="19.3" viewBox="0 0 22.248 19.3">
  <g id="Group_762" data-name="Group 762" transform="translate(-21.75 -25.55)">
    <path id="Path_1602" data-name="Path 1602" d="M26.814,34.791H21.9v6.675A3.242,3.242,0,0,0,25.135,44.7H39.713a4.124,4.124,0,0,0,4.136-4.136V25.7H26.814Zm-3.4,6.716v-5.2h3.4v5.159a1.7,1.7,0,0,1-3.4.041Zm4.914-14.291H42.292V40.564a2.639,2.639,0,0,1-2.621,2.621H27.837a2.989,2.989,0,0,0,.491-1.679V27.215Z" transform="translate(0)" fill="#eb1b63" stroke="#eb1b63" stroke-linecap="round" stroke-width="0.3"/>
    <path id="Path_1603" data-name="Path 1603" d="M45.1,37.253h3.694a.8.8,0,0,0,.8-.8.762.762,0,0,0-.8-.756H45.1a.8.8,0,0,0-.8.8A.739.739,0,0,0,45.1,37.253Z" transform="translate(-13.298 -5.914)" fill="#eb1b63" stroke="#eb1b63" stroke-linecap="round" stroke-width="0.3"/>
    <path id="Path_1604" data-name="Path 1604" d="M45.1,44.4h7.22a.8.8,0,0,0,.8-.8.772.772,0,0,0-.8-.8H45.1a.8.8,0,0,0-.8.8A.772.772,0,0,0,45.1,44.4Z" transform="translate(-13.376 -10.114)" fill="#eb1b63" stroke="#eb1b63" stroke-linecap="round" stroke-width="0.3"/>
    <path id="Path_1605" data-name="Path 1605" d="M45.1,51.6h7.22a.8.8,0,0,0,.8-.8.772.772,0,0,0-.8-.8H45.1a.8.8,0,0,0-.8.8A.772.772,0,0,0,45.1,51.6Z" transform="translate(-13.376 -14.372)" fill="#eb1b63" stroke="#eb1b63" stroke-linecap="round" stroke-width="0.3"/>
    <path id="Path_1606" data-name="Path 1606" d="M45.1,58.8h7.22a.8.8,0,0,0,.8-.8.772.772,0,0,0-.8-.8H45.1a.8.8,0,0,0-.8.8A.772.772,0,0,0,45.1,58.8Z" transform="translate(-13.376 -18.63)" fill="#eb1b63" stroke="#eb1b63" stroke-linecap="round" stroke-width="0.3"/>
  </g>
</svg>
