<svg xmlns="http://www.w3.org/2000/svg" width="37" height="37" viewBox="0 0 37 37">
  <g id="Group_1222" data-name="Group 1222" transform="translate(0.486 0.487)">
    <path id="Path_1811" data-name="Path 1811" d="M23.262,22.708a1.385,1.385,0,0,1-2.215,1.662l-4.154-5.538A1.384,1.384,0,0,1,16.615,18V8.308a1.385,1.385,0,1,1,2.769,0v9.235ZM36,18A18,18,0,1,1,18,0,18,18,0,0,1,36,18m-2.769,0A15.231,15.231,0,1,0,18,33.231,15.231,15.231,0,0,0,33.231,18" transform="translate(0.014 0.013)" fill="#fff" stroke="#fff" stroke-width="1"/>
  </g>
</svg>
