<svg xmlns="http://www.w3.org/2000/svg" width="16.108" height="24.061" viewBox="0 0 16.108 24.061">
  <g id="Group_692" data-name="Group 692" transform="translate(0.5 0.5)">
    <g id="Path_1607" data-name="Path 1607" transform="translate(-31 -21)" fill="#ad9be6">
      <path d="M 36.72695541381836 44.31103134155273 C 36.39029312133789 44.31103134155273 36.11258316040039 44.05802154541016 36.08096313476562 43.72250366210938 C 36.04743576049805 43.36603164672852 36.31035232543945 43.04875183105469 36.66705322265625 43.01520156860352 C 36.68672561645508 43.01330184936523 36.70718383789062 43.01232147216797 36.72764587402344 43.01232147216797 C 36.74355697631836 43.01232147216797 36.75947189331055 43.01291656494141 36.77531051635742 43.01410293579102 L 40.34296417236328 43.01410293579102 L 40.35410308837891 43.01410293579102 C 40.71489334106445 43.01931381225586 41.00126266479492 43.31392288208008 40.9960823059082 43.67086410522461 C 40.99098587036133 44.02289199829102 40.70063018798828 44.30929183959961 40.34886932373047 44.30929183959961 C 40.34885025024414 44.30929183959961 40.34885406494141 44.30929183959961 40.34883499145508 44.30929183959961 L 40.33933258056641 44.30922317504883 L 36.77517318725586 44.30925369262695 C 36.75900268554688 44.31044769287109 36.74293899536133 44.31103134155273 36.72695541381836 44.31103134155273 Z M 35.13665390014648 41.13044357299805 C 34.80000305175781 41.13044357299805 34.52229309082031 40.87744140625 34.49067306518555 40.54192352294922 C 34.47441482543945 40.36901092529297 34.52646255493164 40.20026397705078 34.63724517822266 40.06670379638672 C 34.74789428710938 39.93329238891602 34.90398406982422 39.85087203979492 35.07676315307617 39.83462142944336 C 35.096435546875 39.83272171020508 35.11689376831055 39.83174133300781 35.13734436035156 39.83174133300781 C 35.15326309204102 39.83174133300781 35.16918182373047 39.83233642578125 35.18502044677734 39.83352279663086 L 41.93327331542969 39.83352279663086 L 41.94440460205078 39.83352279663086 C 42.30518341064453 39.8387336730957 42.591552734375 40.13334274291992 42.58637237548828 40.49028396606445 C 42.58127593994141 40.84229278564453 42.29091262817383 41.12870407104492 41.93915176391602 41.12870407104492 C 41.93913269042969 41.12870407104492 41.93915557861328 41.12870407104492 41.93913269042969 41.12870407104492 L 41.92965316772461 41.12863159179688 L 35.18487548828125 41.128662109375 C 35.16870498657227 41.12985992431641 35.15263748168945 41.13044357299805 35.13665390014648 41.13044357299805 Z M 42.52962493896484 37.94808197021484 L 34.57816314697266 37.94808197021484 C 34.22109222412109 37.94808197021484 33.93059539794922 37.6575813293457 33.93059539794922 37.30050277709961 C 33.93059539794922 35.38034439086914 33.29193496704102 34.52295303344727 32.55243301391602 33.53018188476562 L 32.46435546875 33.41182327270508 C 31.74087333679199 32.43831253051758 30.7499942779541 31.10497283935547 30.7499942779541 28.49187278747559 C 30.7499942779541 24.22299194335938 34.25080490112305 20.75000190734863 38.55389404296875 20.75000190734863 C 42.85697555541992 20.75000190734863 46.35778427124023 24.22299194335938 46.35778427124023 28.49187278747559 C 46.35778427124023 31.10434341430664 45.36716461181641 32.43801116943359 44.64383316040039 33.41182327270508 L 44.55619430541992 33.52953338623047 C 43.81624221801758 34.52243423461914 43.17720413208008 35.37992095947266 43.17720413208008 37.30050277709961 C 43.17720413208008 37.6575813293457 42.88670349121094 37.94808197021484 42.52962493896484 37.94808197021484 Z M 39.20146560668945 36.65293121337891 L 41.9355583190918 36.65293121337891 C 42.09830474853516 34.657470703125 42.96045303344727 33.49724960327148 43.59641265869141 32.64133453369141 L 43.59953308105469 32.63713455200195 C 44.38462448120117 31.58051300048828 45.06264495849609 30.66798210144043 45.06264495849609 28.49187278747559 C 45.06264495849609 26.76862335205078 44.38695526123047 25.14970207214355 43.1600456237793 23.93331336975098 C 41.93189239501953 22.71571350097656 40.29606246948242 22.04514312744141 38.55389404296875 22.04514312744141 C 36.81172561645508 22.04514312744141 35.17589569091797 22.71571350097656 33.9477424621582 23.93331336975098 C 32.72083282470703 25.14970207214355 32.04514312744141 26.76862335205078 32.04514312744141 28.49187278747559 C 32.04514312744141 30.66842269897461 32.72356414794922 31.5810432434082 33.50910568237305 32.63775253295898 C 34.14745712280273 33.49735641479492 35.00945281982422 34.65826416015625 35.17222595214844 36.65293121337891 L 37.90632247924805 36.65293121337891 L 37.90632247924805 30.30086898803711 C 36.97361755371094 30.01686668395996 36.31602478027344 29.14566802978516 36.31602478027344 28.15632247924805 C 36.31602478027344 26.9223518371582 37.31992340087891 25.91845321655273 38.55389404296875 25.91845321655273 C 39.7878532409668 25.91845321655273 40.79175567626953 26.9223518371582 40.79175567626953 28.15632247924805 C 40.79175567626953 29.14566802978516 40.13417816162109 30.01686477661133 39.20146560668945 30.30086708068848 L 39.20146560668945 36.65293121337891 Z M 38.55389404296875 27.21360206604004 C 38.02526473999023 27.21360206604004 37.61117553710938 27.62769317626953 37.61117553710938 28.15632247924805 C 37.61117553710938 28.6849536895752 38.02526473999023 29.09904289245605 38.55389404296875 29.09904289245605 C 39.08251571655273 29.09904289245605 39.49660491943359 28.6849536895752 39.49660491943359 28.15632247924805 C 39.49660491943359 27.62769317626953 39.08251571655273 27.21360206604004 38.55389404296875 27.21360206604004 Z" stroke="none"/>
      <path d="M 38.55389404296875 21.00000381469727 C 34.38732528686523 21.00000381469727 30.99999237060547 24.35790252685547 30.99999237060547 28.49187088012695 C 30.99999237060547 30.9329719543457 31.86670303344727 32.18850326538086 32.66504287719727 33.26275253295898 C 33.46296310424805 34.33699035644531 34.18059539794922 35.22080230712891 34.18059539794922 37.30050277709961 C 34.18059539794922 37.51996231079102 34.35870361328125 37.69808197021484 34.57816314697266 37.69808197021484 L 42.52962493896484 37.69808197021484 C 42.74908447265625 37.69808197021484 42.92720413208008 37.51996231079102 42.92720413208008 37.30050277709961 C 42.92720413208008 35.22080230712891 43.64481353759766 34.33699035644531 44.44314575195312 33.26275253295898 C 45.24107360839844 32.18850326538086 46.10778427124023 30.9329719543457 46.10778427124023 28.49187088012695 C 46.10778427124023 24.35790252685547 42.72046279907227 21.00000381469727 38.55389404296875 21.00000381469727 M 42.16943359375 36.90293121337891 L 38.95146560668945 36.90293121337891 L 38.95146560668945 30.1068115234375 C 39.85515594482422 29.92075347900391 40.54175567626953 29.11288452148438 40.54175567626953 28.15632247924805 C 40.54175567626953 27.06299209594727 39.64721298217773 26.16845321655273 38.55389404296875 26.16845321655273 C 37.46056365966797 26.16845321655273 36.56602478027344 27.06299209594727 36.56602478027344 28.15632247924805 C 36.56602478027344 29.11288452148438 37.25264358520508 29.92075347900391 38.15632247924805 30.1068115234375 L 38.15632247924805 36.90293121337891 L 34.9383544921875 36.90293121337891 C 34.83499526977539 34.90950012207031 34.05097579956055 33.78675079345703 33.31109237670898 32.79043197631836 C 32.51873397827148 31.72454452514648 31.79514312744141 30.753662109375 31.79514312744141 28.49187088012695 C 31.79514312744141 24.79126358032227 34.81313323974609 21.79514312744141 38.55389404296875 21.79514312744141 C 42.29465484619141 21.79514312744141 45.31264495849609 24.79126358032227 45.31264495849609 28.49187088012695 C 45.31264495849609 30.753662109375 44.58905410766602 31.72454452514648 43.79708480834961 32.79043197631836 C 43.05680465698242 33.78675079345703 42.27279281616211 34.90950012207031 42.16943359375 36.90293121337891 M 38.55389404296875 29.34903335571289 C 37.89034271240234 29.34903335571289 37.36117553710938 28.81987380981445 37.36117553710938 28.15632247924805 C 37.36117553710938 27.49277114868164 37.89034271240234 26.96360397338867 38.55389404296875 26.96360397338867 C 39.21743392944336 26.96360397338867 39.74660491943359 27.49277114868164 39.74660491943359 28.15632247924805 C 39.74660491943359 28.81987380981445 39.21743392944336 29.34903335571289 38.55389404296875 29.34903335571289 M 35.13734817504883 40.08173751831055 C 35.12492370605469 40.08173751831055 35.11249923706055 40.08233261108398 35.10017395019531 40.08352279663086 C 34.88030242919922 40.10420227050781 34.71889495849609 40.29861450195312 34.73957443237305 40.51847076416016 C 34.76025390625 40.73792266845703 34.95509719848633 40.89935684204102 35.17451477050781 40.878662109375 L 41.93327331542969 40.878662109375 C 42.15309906005859 40.88192749023438 42.33322525024414 40.70612335205078 42.33640289306641 40.48666381835938 C 42.33958435058594 40.26720428466797 42.16425323486328 40.08670043945312 41.94440460205078 40.08352279663086 C 41.94082260131836 40.08352279663086 41.93684387207031 40.08352279663086 41.93327331542969 40.08352279663086 L 35.17451477050781 40.08352279663086 C 35.16219329833984 40.08233261108398 35.14977264404297 40.08173751831055 35.13734817504883 40.08173751831055 M 36.72763824462891 43.2623176574707 C 36.71521377563477 43.2623176574707 36.70278930664062 43.26291275024414 36.69046401977539 43.26410293579102 C 36.47060394287109 43.28478240966797 36.30918502807617 43.47919464111328 36.32986450195312 43.69905090332031 C 36.35054397583008 43.91851043701172 36.54532623291016 44.07992172241211 36.76481246948242 44.05925369262695 L 40.34296417236328 44.05925369262695 C 40.56243133544922 44.06219482421875 40.7429313659668 43.88670349121094 40.74611282348633 43.66724395751953 C 40.74929428100586 43.44778442382812 40.5739631652832 43.26729202270508 40.35410308837891 43.26410293579102 C 40.35052490234375 43.26410293579102 40.34655380249023 43.26410293579102 40.34296417236328 43.26410293579102 L 36.76481246948242 43.26410293579102 C 36.75248718261719 43.26291275024414 36.74006271362305 43.2623176574707 36.72763824462891 43.2623176574707 M 38.55389404296875 20.50000381469727 C 42.99482345581055 20.50000381469727 46.60778427124023 24.08514404296875 46.60778427124023 28.49187088012695 C 46.60778427124023 30.98090362548828 45.77372360229492 32.30992126464844 44.84453582763672 33.56089019775391 L 44.75665283203125 33.67892456054688 C 44.01388549804688 34.67560195922852 43.42720413208008 35.46283340454102 43.42720413208008 37.30050277709961 C 43.42720413208008 37.79543304443359 43.02455520629883 38.19808197021484 42.52962493896484 38.19808197021484 L 34.57816314697266 38.19808197021484 C 34.08324432373047 38.19808197021484 33.68059539794922 37.79543304443359 33.68059539794922 37.30050277709961 C 33.68059539794922 35.46322250366211 33.09426498413086 34.67608261108398 32.35194396972656 33.67953491210938 L 32.26365280151367 33.56089019775391 C 31.33427429199219 32.3103141784668 30.49999237060547 30.98152160644531 30.49999237060547 28.49187088012695 C 30.49999237060547 24.08514404296875 34.11295318603516 20.50000381469727 38.55389404296875 20.50000381469727 Z M 41.70832443237305 36.40293121337891 C 41.92074966430664 34.4774284362793 42.76603698730469 33.3397331237793 43.39574432373047 32.49223327636719 L 43.39886474609375 32.48803329467773 C 44.1574821472168 31.46703338623047 44.81264495849609 30.58527374267578 44.81264495849609 28.49187088012695 C 44.81264495849609 26.83581161499023 44.16322326660156 25.27993392944336 42.98402404785156 24.1108512878418 C 41.80301284790039 22.93997192382812 40.22969436645508 22.29514312744141 38.55389404296875 22.29514312744141 C 36.87809371948242 22.29514312744141 35.30477523803711 22.93997192382812 34.12376403808594 24.1108512878418 C 32.94456481933594 25.27993392944336 32.29514312744141 26.83581161499023 32.29514312744141 28.49187088012695 C 32.29514312744141 30.5856819152832 32.95068359375 31.46752166748047 33.70974349975586 32.48861312866211 C 34.34185028076172 33.33979797363281 35.18708801269531 34.4779167175293 35.39945983886719 36.40293121337891 L 37.65632247924805 36.40293121337891 L 37.65632247924805 30.47861480712891 C 36.7145881652832 30.11153411865234 36.06602478027344 29.19217681884766 36.06602478027344 28.15632247924805 C 36.06602478027344 26.78450393676758 37.18207550048828 25.66845321655273 38.55389404296875 25.66845321655273 C 39.92570495605469 25.66845321655273 41.04175567626953 26.78450393676758 41.04175567626953 28.15632247924805 C 41.04175567626953 29.19217681884766 40.39319229125977 30.11153030395508 39.45146560668945 30.47861480712891 L 39.45146560668945 36.40293121337891 L 41.70832443237305 36.40293121337891 Z M 38.55389404296875 28.84903335571289 C 38.94233322143555 28.84903335571289 39.24660491943359 28.54476165771484 39.24660491943359 28.15632247924805 C 39.24660491943359 27.76788330078125 38.94233322143555 27.46360397338867 38.55389404296875 27.46360397338867 C 38.16545486450195 27.46360397338867 37.86117553710938 27.76788330078125 37.86117553710938 28.15632247924805 C 37.86117553710938 28.54476165771484 38.16545486450195 28.84903335571289 38.55389404296875 28.84903335571289 Z M 35.13734436035156 39.58173370361328 C 35.15602874755859 39.58173370361328 35.17485809326172 39.58233261108398 35.19359970092773 39.58352279663086 L 41.95163345336914 39.58357238769531 C 42.19143295288086 39.58704376220703 42.41550445556641 39.68360137939453 42.58256530761719 39.85548400878906 C 42.74969482421875 40.02741241455078 42.83982467651367 40.25414276123047 42.83635330200195 40.49390411376953 C 42.82928466796875 40.98178100585938 42.42679214477539 41.37870025634766 41.93913269042969 41.37870025634766 L 41.93327331542969 41.378662109375 L 41.93327331542969 41.378662109375 L 35.19327163696289 41.378662109375 C 35.17440795898438 41.37984466552734 35.15546035766602 41.38044357299805 35.13665390014648 41.38044357299805 C 34.67027282714844 41.38044357299805 34.28556442260742 41.03004455566406 34.24178314208984 40.56538391113281 C 34.21925354003906 40.32587432861328 34.29136276245117 40.09211349487305 34.44482421875 39.9071044921875 C 34.59805297851562 39.72235107421875 34.81417465209961 39.60821533203125 35.05335235595703 39.58572387695312 C 35.08031463623047 39.58311462402344 35.10899353027344 39.58173370361328 35.13734436035156 39.58173370361328 Z M 36.72763442993164 42.76231384277344 C 36.7463264465332 42.76231384277344 36.76516342163086 42.76291275024414 36.78391265869141 42.76410293579102 L 40.36135482788086 42.76415252685547 C 40.85635375976562 42.77133178710938 41.25323486328125 43.17971038818359 41.24606323242188 43.67448425292969 C 41.23899459838867 44.16237258911133 40.83650588989258 44.55929183959961 40.34884262084961 44.55929183959961 L 40.34296417236328 44.55924987792969 L 40.34296417236328 44.55925369262695 L 36.7835693359375 44.55925369262695 C 36.76470947265625 44.5604362487793 36.74576187133789 44.56103515625 36.72695541381836 44.56103515625 C 36.26057434082031 44.56103515625 35.8758544921875 44.21062469482422 35.83207321166992 43.74596405029297 C 35.80954360961914 43.50645446777344 35.88165283203125 43.2726936340332 36.03511428833008 43.08767318725586 C 36.1883544921875 42.90293121337891 36.40446472167969 42.78879547119141 36.64364242553711 42.76630401611328 C 36.67060470581055 42.76369476318359 36.69928359985352 42.76231384277344 36.72763442993164 42.76231384277344 Z" stroke="none" fill="#ad9be6"/>
    </g>
  </g>
</svg>
