<svg xmlns="http://www.w3.org/2000/svg" width="18.96" height="20.5" viewBox="0 0 18.96 20.5">
  <g id="icon_perfil_azul" transform="translate(1 1)">
    <path id="Path_206" data-name="Path 206" d="M278.832,326.236c.052,0,.1,0,.154,0a4.236,4.236,0,0,0,4.281-4.011c0-.1,0-.2,0-.255a4.3,4.3,0,0,0-4.268-4.3h-.031a4.289,4.289,0,0,0-4.268,4.262,4.064,4.064,0,0,0,1.1,2.938A4.306,4.306,0,0,0,278.832,326.236Z" transform="translate(-270.339 -317.667)" fill="none" stroke="#ad9be6" stroke-width="2"/>
    <path id="Path_207" data-name="Path 207" d="M280.516,330.571h-2.984c-6.908,0-6.988,6.044-6.988,6.105a2.447,2.447,0,0,0,2.444,2.443H285.06a2.446,2.446,0,0,0,2.444-2.443C287.5,336.615,287.424,330.571,280.516,330.571Z" transform="translate(-270.544 -320.62)" fill="none" stroke="#ad9be6" stroke-width="2"/>
  </g>
</svg>
