<svg xmlns="http://www.w3.org/2000/svg" width="16.769" height="22.55" viewBox="0 0 16.769 22.55">
  <g id="icon_dicas_azul" transform="translate(1.009 1)">
    <g id="Idea_2_">
      <g id="Group_9" data-name="Group 9">
        <path id="Path_34" data-name="Path 34" d="M134.173,102.458c-1.59,1.991-2.492,2.635-2.574,5.014h-6.624c-.1-2.3-1-2.93-2.689-5.169a6.714,6.714,0,0,1-1.3-5.163,7.009,7.009,0,0,1,7.3-5.88c3.652.012,7.3,2.354,7.377,6.838A6.747,6.747,0,0,1,134.173,102.458Z" transform="translate(-120.904 -91.259)" fill="none" stroke="#ad9be6" stroke-linecap="round" stroke-width="2"/>
      </g>
    </g>
    <path id="Path_1493" data-name="Path 1493" d="M0,0S.207,3.546,3.312,3.552,6.52,0,6.52,0" transform="translate(4.101 16.999)" fill="none" stroke="#ad9be6" stroke-linecap="round" stroke-width="2"/>
  </g>
</svg>
