<svg xmlns="http://www.w3.org/2000/svg" width="31.08" height="33.512" viewBox="0 0 31.08 33.512">
  <path id="Path_1849" data-name="Path 1849" d="M27.167,0h-19A3.918,3.918,0,0,0,4.255,3.914v6.117H1.786A1.673,1.673,0,0,0,0,11.817,1.673,1.673,0,0,0,1.786,13.6h2.47v7.067H1.786A1.673,1.673,0,0,0,0,22.455a1.673,1.673,0,0,0,1.786,1.786h2.47V29.6a3.918,3.918,0,0,0,3.914,3.914h19A3.918,3.918,0,0,0,31.08,29.6V3.914A3.918,3.918,0,0,0,27.167,0M7.827,24.241h3.82a1.788,1.788,0,1,0,.018-3.572H7.827V13.6h3.82a1.788,1.788,0,1,0,.018-3.572H7.827V5.419A1.85,1.85,0,0,1,9.675,3.572H25.661a1.85,1.85,0,0,1,1.848,1.848V28.092a1.85,1.85,0,0,1-1.848,1.848H9.675a1.85,1.85,0,0,1-1.848-1.848Z" fill="#ad9be6"/>
</svg>
